<?xml version="1.0" standalone="no"?>
<!DOCTYPE svg PUBLIC "-//W3C//DTD SVG 20010904//EN"
 "http://www.w3.org/TR/2001/REC-SVG-20010904/DTD/svg10.dtd">
<svg version="1.0" xmlns="http://www.w3.org/2000/svg"
 width="2000.000000pt" height="2000.000000pt" viewBox="0 0 2000.000000 2000.000000"
 preserveAspectRatio="xMidYMid meet">
<metadata>
Created by potrace 1.11, written by Peter Selinger 2001-2013
</metadata>
<g transform="translate(0.000000,2000.000000) scale(0.100000,-0.100000)"
fill="#000000" stroke="none">
<path d="M4461 12030 c-4 -3 -24 -70 -45 -150 -20 -80 -54 -212 -75 -293 -21
-81 -35 -149 -32 -151 11 -7 661 -4 665 3 4 6 10 49 21 141 6 47 12 99 21 161
2 20 6 54 9 75 2 21 6 55 9 74 2 19 7 60 11 90 l7 55 -292 0 c-160 0 -295 -2
-299 -5z"/>
<path d="M16295 12029 c-5 -8 -75 -269 -79 -296 -2 -11 -7 -30 -10 -41 -4 -11
-9 -29 -11 -39 -2 -10 -12 -45 -21 -78 -16 -59 -20 -78 -30 -121 l-4 -22 336
2 337 1 13 45 c8 25 16 54 18 65 2 11 32 124 65 250 34 127 61 232 61 235 0 7
-671 6 -675 -1z"/>
<path d="M1541 11725 c-4 -5 -16 -30 -25 -55 -66 -168 -341 -381 -653 -505
-51 -21 -93 -39 -93 -41 0 -3 167 -234 188 -259 4 -5 41 -57 82 -113 68 -97
75 -103 101 -98 82 16 307 123 387 183 18 14 35 23 37 21 3 -2 7 -69 10 -149
2 -79 7 -218 10 -309 4 -91 8 -221 10 -290 2 -69 5 -125 5 -125 0 0 2 -56 5
-125 8 -257 21 -613 24 -680 1 -23 732 -20 755 3 52 51 224 251 308 357 55 69
106 133 114 143 71 88 314 450 314 467 0 6 5 10 10 10 6 0 10 4 10 9 0 8 61
116 77 136 5 6 15 24 24 40 8 17 25 49 37 73 l23 43 37 -44 c49 -59 144 -122
211 -141 168 -49 376 21 539 181 30 29 56 53 57 53 3 0 -95 -250 -119 -305
-33 -73 -83 -238 -101 -335 -11 -54 -15 -300 -5 -324 4 -11 14 -41 21 -66 32
-109 115 -208 221 -261 105 -53 194 -71 363 -72 83 0 170 3 195 7 25 4 56 9
70 11 14 2 40 9 58 14 17 5 32 7 32 4 0 -3 6 -1 13 5 6 6 14 10 17 10 25 -3
150 54 229 106 87 56 215 184 255 255 26 44 32 41 74 -33 64 -112 175 -216
297 -278 32 -17 143 -57 172 -63 10 -2 38 -8 63 -14 96 -21 316 -30 425 -17
56 7 165 24 195 31 14 3 36 7 50 10 14 2 61 15 106 29 251 75 451 189 623 355
35 34 65 60 66 59 2 -2 -5 -30 -15 -63 -33 -110 -100 -361 -100 -373 0 -8 88
-11 325 -10 l324 0 15 52 c8 28 26 94 40 146 14 52 44 164 68 249 l41 153 94
117 c51 64 99 123 106 131 7 8 46 58 87 110 41 52 77 97 80 100 3 3 30 36 60
75 99 126 132 164 164 185 31 20 62 16 76 -10 9 -17 -7 -105 -35 -185 -18 -53
-113 -305 -124 -330 -61 -137 -99 -300 -99 -428 0 -179 78 -322 213 -386 148
-71 403 -59 634 29 72 28 202 93 248 125 45 30 56 31 48 6 -3 -11 -8 -29 -10
-41 -2 -12 -7 -30 -10 -41 -17 -63 -51 -57 311 -56 l327 2 19 70 c138 512 144
530 171 562 13 15 132 163 264 328 132 165 252 312 266 328 39 41 71 50 99 28
l22 -19 -18 -78 c-10 -44 -57 -178 -104 -299 -104 -272 -116 -308 -135 -420
-51 -295 55 -495 294 -558 48 -12 194 -14 279 -4 188 24 393 110 601 252 l105
72 33 -68 c39 -82 121 -167 195 -203 155 -76 353 -54 509 57 70 50 125 111
237 260 40 54 74 96 75 95 2 -2 6 -38 9 -82 8 -100 52 -208 107 -264 130 -134
407 -145 654 -27 l90 43 27 104 c14 56 47 182 73 278 64 239 63 228 39 210
-10 -8 -28 -23 -39 -33 -11 -10 -48 -32 -83 -49 -108 -53 -192 -37 -192 36 0
24 34 178 54 241 1 6 8 30 15 55 7 25 17 59 22 75 11 35 108 382 114 406 2 9
13 49 25 89 12 40 23 80 25 89 2 9 21 80 44 158 23 78 41 148 41 155 0 11 -35
13 -179 13 -166 0 -181 -2 -198 -20 -10 -11 -30 -30 -44 -43 -26 -23 -27 -23
-60 -4 -70 39 -226 85 -332 99 -68 9 -268 9 -332 0 -75 -10 -198 -43 -246 -66
-24 -12 -47 -21 -52 -21 -5 0 -53 -29 -106 -63 -200 -133 -355 -334 -455 -595
-24 -63 -63 -215 -80 -310 -9 -54 -21 -90 -32 -101 -163 -150 -314 -231 -454
-244 -67 -6 -98 8 -106 47 -6 36 12 93 126 402 85 228 121 375 124 509 2 67
-12 165 -25 180 -5 5 -9 17 -9 26 0 30 -51 108 -97 148 -69 61 -138 84 -261
87 -165 3 -273 -41 -396 -161 -73 -72 -138 -157 -275 -362 -94 -142 -117 -173
-106 -140 6 17 105 377 111 402 2 11 17 67 32 125 l29 105 -323 0 c-177 0
-325 -2 -328 -5 -4 -5 -98 -338 -111 -397 -2 -10 -27 -101 -55 -203 -28 -102
-64 -234 -81 -295 -22 -81 -38 -119 -63 -150 -151 -183 -368 -313 -531 -317
-75 -2 -95 10 -95 58 0 30 26 122 50 179 5 11 20 54 35 95 15 41 33 91 40 110
52 134 65 170 65 182 1 7 7 31 15 53 25 68 47 216 46 305 0 83 -22 174 -57
242 -34 65 -138 144 -218 165 -40 11 -201 12 -246 2 -87 -18 -187 -76 -263
-152 -40 -40 -86 -90 -102 -112 -17 -22 -32 -42 -35 -45 -3 -3 -59 -85 -124
-182 -66 -98 -121 -176 -123 -174 -2 1 4 25 12 52 14 49 63 226 69 254 2 8 22
83 45 166 23 84 41 156 41 161 0 4 -145 8 -321 8 -275 0 -323 -2 -330 -15 -7
-12 -64 -219 -84 -300 -1 -8 -15 -56 -29 -107 -14 -51 -26 -97 -26 -104 0 -6
-29 -49 -65 -95 -274 -350 -586 -597 -887 -703 -49 -17 -88 -28 -88 -25 0 2
-8 1 -17 -5 -48 -25 -284 -33 -378 -13 -71 15 -152 50 -159 68 -3 8 7 17 27
23 98 28 429 159 552 218 321 152 452 310 461 553 4 115 -3 148 -55 260 -16
34 -129 160 -144 160 -4 0 -24 10 -45 23 -57 36 -155 68 -254 85 -54 9 -309 8
-363 -1 -204 -35 -430 -138 -551 -252 -6 -5 -26 -24 -45 -40 -91 -80 -168
-191 -255 -366 -200 -398 -395 -636 -569 -691 -87 -27 -191 -30 -228 -5 -73
48 -78 116 -19 293 41 122 46 137 155 434 82 224 88 245 89 335 1 146 -34 231
-111 270 -51 26 -77 30 -201 30 -145 0 -165 -7 -435 -140 -115 -57 -243 -113
-282 -124 -74 -20 -166 -22 -228 -6 -44 12 -107 54 -102 68 47 112 95 232 123
312 19 55 38 107 41 115 4 8 7 17 8 20 1 5 42 139 66 215 5 17 16 52 24 78 8
26 15 53 15 60 0 9 -88 12 -389 12 -356 0 -405 -3 -406 -23 -5 -63 -68 -330
-106 -452 -37 -117 -92 -265 -106 -285 -7 -11 -13 -26 -13 -33 0 -18 -127
-270 -178 -354 -57 -93 -125 -192 -134 -196 -5 -2 -8 -10 -8 -17 0 -7 -3 -15
-8 -17 -4 -1 -40 -44 -79 -94 -115 -145 -105 -162 -98 177 3 162 8 398 10 524
2 127 7 352 10 500 l5 270 -376 0 c-243 0 -378 -3 -383 -10z m11920 -1110 c17
-4 29 -12 26 -18 -2 -7 -28 -110 -58 -231 l-54 -218 -203 -197 c-213 -206
-270 -249 -302 -229 -54 34 -41 277 25 475 56 168 182 336 292 388 81 40 181
50 274 30z m-6884 -24 c37 -28 44 -44 45 -99 1 -74 -38 -114 -177 -182 -100
-48 -406 -180 -420 -180 -3 0 -4 20 -1 43 27 201 151 368 316 426 80 29 193
25 237 -8z"/>
<path d="M18310 11468 c-230 -278 -489 -555 -706 -755 -121 -111 -237 -213
-379 -332 -22 -18 -180 -140 -235 -181 -18 -14 -45 -34 -59 -46 -42 -33 -380
-264 -388 -264 -2 0 -20 -12 -39 -26 -31 -24 -34 -25 -34 -8 0 11 5 35 11 54
5 19 12 42 14 50 2 8 22 89 45 180 22 91 43 176 46 190 3 14 9 39 14 55 5 17
12 44 16 60 4 17 8 35 10 40 21 81 36 146 40 170 3 17 9 48 13 70 21 119 -12
252 -76 305 -78 65 -194 98 -353 101 -99 2 -256 -21 -325 -48 -22 -8 -40 -14
-40 -13 0 3 -40 -13 -100 -38 -63 -28 -156 -81 -242 -139 -59 -41 -59 -40
-119 -268 -20 -77 -52 -196 -71 -265 -38 -138 -62 -231 -63 -243 0 -4 46 30
103 75 112 91 236 176 337 231 80 44 231 109 238 103 2 -3 1 -18 -3 -33 -5
-15 -9 -32 -11 -38 -1 -5 -25 -93 -54 -195 -28 -102 -53 -192 -55 -200 -5 -22
-210 -763 -252 -910 -19 -69 -37 -132 -38 -140 -17 -71 -62 -204 -83 -244 -54
-99 -141 -167 -252 -197 -50 -14 -95 -17 -200 -15 -74 2 -146 6 -159 9 -83 21
-139 43 -230 90 -40 21 -75 36 -77 34 -3 -3 108 -551 127 -622 11 -44 26 -53
159 -94 157 -49 395 -49 598 1 212 51 374 157 473 310 73 113 240 478 285 623
2 6 13 38 26 72 22 59 25 63 88 95 57 29 312 169 410 225 19 11 87 53 150 93
99 62 156 100 335 224 17 12 32 23 35 26 3 3 42 34 88 69 l83 63 -6 -78 c-3
-44 -8 -95 -10 -114 -2 -19 -7 -80 -10 -135 -4 -55 -9 -102 -11 -105 -12 -11
161 -102 251 -131 136 -45 237 -60 403 -64 101 -1 146 2 262 18 158 23 356
127 466 244 127 136 198 331 189 523 -3 52 -7 106 -10 120 -3 14 -7 36 -10 50
-5 26 -12 57 -19 88 -19 77 -85 248 -147 379 -22 49 -54 115 -69 148 -16 33
-51 108 -78 167 l-50 107 121 142 121 142 -25 21 c-14 12 -43 35 -64 53 -125
100 -185 148 -224 181 -85 71 -68 77 -181 -60z m-152 -1085 c22 -43 56 -121
77 -173 20 -52 41 -104 45 -115 44 -109 62 -241 40 -298 -19 -48 -56 -83 -114
-108 -70 -32 -243 -31 -361 0 -92 24 -243 97 -295 141 -34 30 -35 30 -15 45
118 91 496 471 562 565 8 11 16 20 18 20 3 0 22 -35 43 -77z"/>
<path d="M14591 9850 c-8 -5 -56 -174 -106 -365 -7 -27 -27 -101 -44 -163 -17
-62 -31 -116 -31 -121 0 -5 168 -9 375 -9 l376 -1 9 22 c6 12 26 83 46 157 78
295 93 346 103 373 6 15 9 27 6 27 -2 0 2 18 10 40 13 37 13 40 -3 41 -107 3
-736 3 -741 -1z"/>
</g>
</svg>
